<?xml version="1.0" encoding="UTF-8" standalone="no"?>
<svg
   xmlns:dc="http://purl.org/dc/elements/1.1/"
   xmlns:cc="http://creativecommons.org/ns#"
   xmlns:rdf="http://www.w3.org/1999/02/22-rdf-syntax-ns#"
   xmlns:svg="http://www.w3.org/2000/svg"
   xmlns="http://www.w3.org/2000/svg"
   viewBox="0 0 24 24"
   fill="none"
   version="1.1"
   id="svg30"
   width="24"
   height="24">
  <metadata
     id="metadata36">
    <rdf:RDF>
      <cc:Work
         rdf:about="">
        <dc:format>image/svg+xml</dc:format>
        <dc:type
           rdf:resource="http://purl.org/dc/dcmitype/StillImage" />
        <dc:title></dc:title>
      </cc:Work>
    </rdf:RDF>
  </metadata>
  <defs
     id="defs34" />
  <path
     d="m 12.986211,23.033985 5.306349,-3.303844 v -6.74658 c 0,-0.131639 -0.0234,-0.257971 -0.06294,-0.378921 l -5.360329,3.337034 c 0.07554,0.179108 0.116921,0.374437 0.116921,0.57597 z"
     fill="white"
     id="path2"
     style="fill:#000000;stroke-width:0.747527" />
  <path
     d="M 11.816937,0.94789702 6.5105653,4.251752 v 6.746527 c 0,0.131714 0.023384,0.258047 0.062957,0.378996 L 11.933857,8.0402403 c -0.07555,-0.1791822 -0.11692,-0.3744512 -0.11692,-0.576014 z"
     fill="white"
     id="path4"
     style="fill:#000000;stroke-width:0.747527" />
  <path
     d="M 12.11283,8.3501649 6.7354072,11.698787 c 0.090838,0.127229 0.2077579,0.238311 0.3462634,0.325249 l 5.2074414,3.242024 c 0.158289,0.09852 0.293195,0.223062 0.401123,0.366363 l 5.378291,-3.347725 c -0.09082,-0.127229 -0.207737,-0.238311 -0.346254,-0.325174 L 12.514858,8.7174249 C 12.355665,8.6180039 12.221655,8.4934658 12.11283,8.3501649 Z"
     fill="white"
     id="path6"
     style="fill:#000000;stroke-width:0.747527" />
  <path
     d="m 11.816974,23.033985 v -5.986868 l -4.7910241,3.00461 z"
     fill="white"
     id="path8"
     style="fill:#000000;stroke-width:0.747527" />
</svg>
